<mxfile host="app.diagrams.net">
  <diagram name="AssistantBotUML">
    <mxGraphModel dx="1420" dy="800" grid="1" gridSize="10" guides="1" tooltips="1" connect="1" arrows="1">
      <root>
        <mxCell id="0"/>
        <mxCell id="1" parent="0"/>

        <!-- Field (abstract) -->
        <mxCell id="field" value="Field
- value: str
+ __str__(): str" style="swimlane;whiteSpace=wrap;" vertex="1" parent="1">
          <mxGeometry x="40" y="20" width="160" height="100" as="geometry"/>
        </mxCell>

        <!-- Name -->
        <mxCell id="name" value="Name
(inherits Field)" style="swimlane;whiteSpace=wrap;" vertex="1" parent="1">
          <mxGeometry x="40" y="140" width="160" height="60" as="geometry"/>
        </mxCell>
        <mxCell id="inherit1" style="endArrow=block;dashed=0;" edge="1" source="name" target="field" parent="1">
          <mxGeometry relative="1" as="geometry"/>
        </mxCell>

        <!-- Phone -->
        <mxCell id="phone" value="Phone
(inherits Field)" style="swimlane;whiteSpace=wrap;" vertex="1" parent="1">
          <mxGeometry x="220" y="140" width="160" height="60" as="geometry"/>
        </mxCell>
        <mxCell id="inherit2" style="endArrow=block;dashed=0;" edge="1" source="phone" target="field" parent="1">
          <mxGeometry relative="1" as="geometry"/>
        </mxCell>

        <!-- Birthday -->
        <mxCell id="birthday" value="Birthday
(inherits Field)" style="swimlane;whiteSpace=wrap;" vertex="1" parent="1">
          <mxGeometry x="400" y="140" width="160" height="60" as="geometry"/>
        </mxCell>
        <mxCell id="inherit3" style="endArrow=block;dashed=0;" edge="1" source="birthday" target="field" parent="1">
          <mxGeometry relative="1" as="geometry"/>
        </mxCell>

        <!-- Record -->
        <mxCell id="record" value="Record
+ name: Name
+ phones: List[Phone]
+ birthday: Birthday
+ add_phone()
+ remove_phone()
+ edit_phone()
+ add_birthday()" style="swimlane;whiteSpace=wrap;" vertex="1" parent="1">
          <mxGeometry x="40" y="240" width="260" height="160" as="geometry"/>
        </mxCell>

        <!-- AddressBook -->
        <mxCell id="addressbook" value="AddressBook
(inherits UserDict[str, Record])
+ add_record()
+ find()
+ delete()
+ get_upcoming_birthdays()" style="swimlane;whiteSpace=wrap;" vertex="1" parent="1">
          <mxGeometry x="320" y="240" width="260" height="140" as="geometry"/>
        </mxCell>

        <!-- View (abstract) -->
        <mxCell id="view" value="View (abstract)
+ display(message: str)" style="swimlane;whiteSpace=wrap;" vertex="1" parent="1">
          <mxGeometry x="40" y="420" width="200" height="60" as="geometry"/>
        </mxCell>

        <!-- ConsoleView -->
        <mxCell id="consoleview" value="ConsoleView
(inherits View)
+ display()" style="swimlane;whiteSpace=wrap;" vertex="1" parent="1">
          <mxGeometry x="300" y="420" width="200" height="60" as="geometry"/>
        </mxCell>
        <mxCell id="inherit4" style="endArrow=block;dashed=0;" edge="1" source="consoleview" target="view" parent="1">
          <mxGeometry relative="1" as="geometry"/>
        </mxCell>

      </root>
    </mxGraphModel>
  </diagram>
</mxfile>